<svg t="1772638054134" class="icon" viewBox="0 0 1024 1024" version="1.1" xmlns="http://www.w3.org/2000/svg" p-id="10119" width="200" height="200"><path d="M921.6 923.36128l-143.68768-3.60448L688.41472 1024 593.92 836.32128a478.74048 478.74048 0 0 0 230.4-106.0864zM430.08 836.32128L335.58528 1024l-89.4976-104.2432L102.4 923.36128l97.19808-193.20832A473.57952 473.57952 0 0 0 430.08 836.32128z m265.54368-475.136l-115.42528-18.8416a6.84032 6.84032 0 0 1-4.096-2.17088 6.38976 6.38976 0 0 1-0.90112-1.31072l-57.344-114.4832a5.65248 5.65248 0 0 0-1.024-1.51552 5.9392 5.9392 0 0 0-1.35168-1.10592 6.3488 6.3488 0 0 0-2.58048-0.94208 6.84032 6.84032 0 0 0-6.84032 3.4816l-58.08128 114.688a6.144 6.144 0 0 1-2.58048 2.74432 6.67648 6.67648 0 0 1-2.17088 0.69632l-114.8928 18.75968a5.9392 5.9392 0 0 0-1.76128 0.53248 6.3488 6.3488 0 0 0-2.4576 1.92512 6.144 6.144 0 0 0 0.90112 8.3968l84.86912 74.67008a6.43072 6.43072 0 0 1 2.12992 4.38272 6.10304 6.10304 0 0 1 0 1.6384l-28.0576 123.2896a5.77536 5.77536 0 0 0 0.28672 3.4816 6.43072 6.43072 0 0 0 2.58048 3.072 6.9632 6.9632 0 0 0 3.4816 1.024h0.49152a7.53664 7.53664 0 0 0 2.2528-0.53248h0.4096l115.712-57.344a7.04512 7.04512 0 0 1 6.02112 0l115.38432 57.344a7.49568 7.49568 0 0 0 2.17088 0.69632 7.70048 7.70048 0 0 0 2.33472 0 7.49568 7.49568 0 0 0 2.12992-0.8192 7.00416 7.00416 0 0 0 1.72032-1.55648 6.5536 6.5536 0 0 0 1.10592-2.37568 6.10304 6.10304 0 0 0 0-2.74432l-28.34432-122.88a6.144 6.144 0 0 1 1.92512-6.02112l85.6064-75.03872a6.84032 6.84032 0 0 0 1.55648-2.12992 6.47168 6.47168 0 0 0 0.49152-2.12992v-0.4096a5.28384 5.28384 0 0 0 0-1.35168 6.67648 6.67648 0 0 0-0.8192-1.96608 6.06208 6.06208 0 0 0-1.96608-1.8432 5.9392 5.9392 0 0 0-1.6384-0.73728h-0.90112zM512 783.44192A401.03936 401.03936 0 0 1 102.4 391.74144a410.0096 410.0096 0 0 1 819.2 0 400.95744 400.95744 0 0 1-409.6 391.65952z" p-id="10120" fill="#515151"></path></svg>
