<svg t="1772638160465" class="icon" viewBox="0 0 1024 1024" version="1.1" xmlns="http://www.w3.org/2000/svg" p-id="12559" width="200" height="200"><path d="M136.704 375.296C136.704 167.936 304.64 0 512 0s375.296 167.936 375.296 375.296c0 112.128-50.176 218.112-136.704 289.792v86.016c0 37.888-30.72 68.096-68.096 68.096H341.504c-37.888 0-68.096-30.72-68.096-68.096v-86.016c-87.04-71.168-137.216-177.664-136.704-289.792z m272.896 512h204.8c37.888 0 68.096 23.04 68.096 51.2s-30.72 51.2-68.096 51.2H409.6c-37.888 0-68.096-23.04-68.096-51.2s30.208-51.2 68.096-51.2z m358.4-512c0-141.312-114.688-256-256-256-28.16 0-51.2 23.04-51.2 51.2s23.04 51.2 51.2 51.2c84.992 0 153.6 68.608 153.6 153.6 0 28.16 23.04 51.2 51.2 51.2s51.2-22.528 51.2-51.2z" fill="#515151" p-id="12560"></path></svg>
