<svg t="1772637957120" class="icon" viewBox="0 0 1024 1024" version="1.1" xmlns="http://www.w3.org/2000/svg" p-id="7726" width="200" height="200"><path d="M900.397773 498.2784V397.6704l-366.336 157.7984a54.6816 54.6816 0 0 1-43.3664 0L16.532173 349.952a27.3408 27.3408 0 0 1 0-50.2272L490.029773 95.8464a54.6816 54.6816 0 0 1 43.3664 0l474.1632 205.4144a27.3408 27.3408 0 0 1 0 50.2272l-44.1344 19.0464v128l38.144 38.144a27.3408 27.3408 0 0 1 0 38.656l-50.176 50.1248a27.3408 27.3408 0 0 1-38.656 0l-50.3808-50.3808a27.3408 27.3408 0 0 1 0-38.656z m-94.464 11.7248v296.96c0 52.0192-140.9536 125.5936-314.88 125.5936s-314.88-73.5744-314.88-125.5936V493.056h5.12l298.496 129.28a81.92 81.92 0 0 0 65.0752 0l261.12-112.64z" fill="#515151" p-id="7727"></path></svg>
