<svg t="1772637571552" class="icon" viewBox="0 0 1024 1024" version="1.1" xmlns="http://www.w3.org/2000/svg" p-id="4889" width="200" height="200"><path d="M730.624 1024H140.8a87.83872 87.83872 0 0 1-87.84384-87.83872V87.83872A87.83872 87.83872 0 0 1 140.8 0h742.26176a87.83872 87.83872 0 0 1 87.83872 87.83872v704.70144a39.936 39.936 0 0 1-9.48736 25.9584l-199.74656 196.06016a41.92768 41.92768 0 0 1-24.64256 9.216h-3.29216l-2.98496-0.22016v0.26624z m155.60704-255.70304a175.67744 175.67744 0 0 0-175.67744 175.68256V983.04l218.76224-214.77376z m-552.17152 30.39232a30.72 30.72 0 1 0 0 61.48608H481.28a30.72 30.72 0 0 0 0-61.48608z m0-143.31392a30.7456 30.7456 0 0 0-0.06144 61.4912h209.86368a30.7456 30.7456 0 1 0 0.06144-61.4912H334.05952zM512 373.31968a139.88864 139.88864 0 0 1 98.304 39.75168 132.57728 132.57728 0 0 1 40.80128 95.744 34.78528 34.78528 0 1 0 69.57056 0 202.95168 202.95168 0 0 0-107.73504-177.83296 132.90496 132.90496 0 0 0 38.16448-93.11232 139.14112 139.14112 0 0 0-278.19008 0 132.8128 132.8128 0 0 0 38.1696 93.11232 202.81856 202.81856 0 0 0-107.77088 177.87904 34.78528 34.78528 0 0 0 69.57056 0A137.51296 137.51296 0 0 1 512 373.31968z m0-67.72224a67.76832 67.76832 0 1 1 69.57056-67.76832A68.73088 68.73088 0 0 1 512 305.664z" fill="#515151" p-id="4890"></path></svg>
